<svg xmlns="http://www.w3.org/2000/svg" viewBox="0 0 1200 100" width="1200" height="100" role="img" aria-labelledby="t"><title id="t">04 Other things I've built</title><defs><path id="b3b" d="M300 12Q160 12 94 -83Q27 -178 27 -349Q27 -520 94 -615Q160 -710 300 -710Q440 -710 506 -615Q573 -520 573 -349Q573 -178 506 -83Q440 12 300 12ZM300 -106Q367 -106 394 -153Q420 -200 420 -284V-414Q420 -498 394 -545Q367 -592 300 -592Q233 -592 206 -545Q180 -498 180 -414V-284Q180 -200 206 -153Q233 -106 300 -106ZM300 -290Q265 -290 252 -304Q238 -318 238 -338V-360Q238 -380 252 -394Q265 -408 300 -408Q335 -408 348 -394Q362 -380 362 -360V-338Q362 -318 348 -304Q335 -290 300 -290Z"/><path id="b41" d="M339 0V-134H25V-262L303 -698H483V-250H573V-134H483V0ZM146 -250H339V-543H330Z"/><path id="m10" d="M102 132H352V-448H93V-516H432V82Q432 134 404 167Q377 200 318 200H102ZM392 -630Q357 -630 343 -644Q329 -659 329 -681V-697Q329 -719 343 -734Q357 -748 392 -748Q427 -748 441 -734Q455 -719 455 -697V-681Q455 -659 441 -644Q427 -630 392 -630Z"/><path id="m11" d="M105 -740H185V-273H189L279 -358L451 -516H549L335 -314L574 0H475L274 -268L185 -187V0H105Z"/><path id="m13" d="M54 0V-516H128V-456H132Q144 -486 166 -507Q188 -528 231 -528Q276 -528 298 -506Q320 -483 325 -447H328Q342 -482 368 -505Q394 -528 440 -528Q503 -528 524 -484Q546 -440 546 -358V0H472V-345Q472 -411 458 -436Q445 -462 409 -462Q377 -462 357 -442Q337 -421 337 -379V0H263V-345Q263 -411 250 -436Q236 -462 201 -462Q169 -462 148 -442Q128 -421 128 -379V0Z"/><path id="m14" d="M98 0V-516H178V-432H182Q190 -451 202 -468Q214 -486 232 -499Q249 -512 273 -520Q297 -528 329 -528Q410 -528 459 -476Q508 -425 508 -331V0H428V-317Q428 -388 397 -422Q366 -457 306 -457Q282 -457 259 -451Q236 -445 218 -433Q200 -421 189 -402Q178 -383 178 -358V0Z"/><path id="m15" d="M300 12Q246 12 202 -7Q159 -26 128 -62Q98 -97 82 -146Q66 -196 66 -258Q66 -319 82 -369Q98 -419 128 -454Q159 -490 202 -509Q246 -528 300 -528Q354 -528 398 -509Q441 -490 472 -454Q502 -419 518 -369Q534 -319 534 -258Q534 -196 518 -146Q502 -97 472 -62Q441 -26 398 -7Q354 12 300 12ZM300 -57Q367 -57 408 -97Q449 -137 449 -221V-295Q449 -379 408 -419Q367 -459 300 -459Q233 -459 192 -419Q151 -379 151 -295V-221Q151 -137 192 -97Q233 -57 300 -57Z"/><path id="m16" d="M95 -516H175V-432H179Q229 -528 338 -528Q433 -528 486 -457Q540 -386 540 -258Q540 -130 486 -59Q433 12 338 12Q229 12 179 -84H175V200H95ZM307 -59Q377 -59 416 -102Q454 -144 454 -214V-302Q454 -372 416 -414Q377 -457 307 -457Q280 -457 256 -450Q232 -443 214 -430Q196 -416 186 -396Q175 -377 175 -351V-165Q175 -139 186 -120Q196 -100 214 -86Q232 -73 256 -66Q280 -59 307 -59Z"/><path id="m18" d="M77 -68H228V-448H77V-516H308V-386H313Q329 -447 374 -482Q418 -516 487 -516H559V-436H462Q393 -436 350 -396Q308 -356 308 -291V-68H508V0H77Z"/><path id="m19" d="M306 12Q225 12 166 -16Q108 -43 67 -89L121 -136Q158 -97 202 -76Q246 -55 308 -55Q368 -55 406 -76Q445 -98 445 -144Q445 -164 438 -178Q430 -191 417 -199Q404 -207 388 -212Q372 -216 354 -219L273 -231Q246 -235 214 -242Q183 -249 157 -264Q131 -280 114 -306Q96 -332 96 -374Q96 -413 112 -442Q127 -470 155 -490Q183 -509 221 -518Q259 -528 304 -528Q374 -528 426 -506Q477 -484 514 -445L462 -396Q453 -407 440 -418Q426 -430 406 -440Q387 -449 361 -455Q335 -461 301 -461Q240 -461 208 -440Q175 -419 175 -379Q175 -359 182 -346Q190 -332 203 -324Q216 -316 232 -312Q249 -307 266 -304L347 -292Q375 -288 406 -281Q437 -274 463 -258Q489 -243 506 -217Q524 -191 524 -149Q524 -72 464 -30Q405 12 306 12Z"/><path id="m1a" d="M325 0Q266 0 238 -33Q211 -66 211 -118V-448H39V-516H167Q193 -516 204 -526Q214 -537 214 -563V-698H291V-516H526V-448H291V-68H526V0Z"/><path id="m1d" d="M30 -516H101L160 -70H169L257 -516H345L433 -70H442L501 -516H570L491 0H387L305 -432H297L213 0H109Z"/><path id="m1e" d="M61 0 253 -262 66 -516H162L240 -407L302 -321H306L366 -407L443 -516H535L346 -263L540 0H444L357 -121L298 -203H294L237 -121L153 0Z"/><path id="m4" d="M495 0Q448 0 428 -24Q408 -48 403 -84H398Q381 -39 344 -14Q306 12 243 12Q162 12 114 -30Q66 -72 66 -145Q66 -217 118 -256Q171 -295 288 -295H398V-346Q398 -403 366 -432Q334 -460 275 -460Q223 -460 190 -440Q157 -419 137 -384L83 -424Q93 -444 110 -463Q127 -482 152 -496Q177 -511 209 -520Q241 -528 280 -528Q371 -528 424 -482Q478 -436 478 -354V-70H550V0ZM257 -55Q288 -55 314 -62Q339 -70 358 -82Q377 -95 388 -112Q398 -130 398 -150V-235H288Q216 -235 183 -215Q150 -195 150 -157V-136Q150 -96 178 -76Q207 -55 257 -55Z"/><path id="m51" d="M257 -136H386L271 141H204Z"/><path id="m7" d="M318 12Q262 12 218 -8Q175 -27 145 -62Q115 -97 100 -147Q84 -197 84 -258Q84 -319 100 -369Q116 -419 146 -454Q176 -490 219 -509Q262 -528 317 -528Q392 -528 439 -495Q486 -462 508 -409L444 -375Q430 -415 398 -437Q365 -459 317 -459Q282 -459 254 -448Q227 -436 208 -415Q189 -394 180 -365Q170 -336 170 -302V-214Q170 -180 180 -151Q189 -122 208 -101Q227 -80 255 -68Q283 -57 319 -57Q371 -57 405 -81Q439 -105 459 -147L516 -108Q493 -56 444 -22Q396 12 318 12Z"/><path id="m8" d="M425 -84H421Q371 12 262 12Q167 12 114 -59Q60 -130 60 -258Q60 -386 114 -457Q167 -528 262 -528Q371 -528 421 -432H425V-740H505V0H425ZM293 -59Q320 -59 344 -66Q368 -73 386 -86Q404 -100 414 -120Q425 -139 425 -165V-351Q425 -377 414 -396Q404 -416 386 -430Q368 -443 344 -450Q320 -457 293 -457Q223 -457 184 -414Q146 -372 146 -302V-214Q146 -144 184 -102Q223 -59 293 -59Z"/><path id="m9" d="M309 12Q253 12 208 -7Q164 -26 132 -62Q101 -97 84 -146Q67 -196 67 -257Q67 -319 84 -369Q102 -419 133 -454Q164 -490 208 -509Q251 -528 304 -528Q356 -528 398 -509Q441 -490 471 -456Q501 -423 517 -377Q533 -331 533 -276V-238H151V-214Q151 -180 162 -151Q173 -122 194 -101Q214 -80 244 -68Q273 -57 309 -57Q361 -57 399 -81Q437 -105 457 -147L516 -107Q493 -55 440 -22Q386 12 309 12ZM304 -462Q271 -462 243 -450Q215 -438 194 -417Q174 -396 162 -368Q151 -339 151 -305V-298H447V-309Q447 -343 436 -371Q426 -399 408 -420Q389 -440 362 -451Q336 -462 304 -462Z"/><path id="ma" d="M83 -68H257V-448H73V-516H257V-622Q257 -674 284 -707Q312 -740 371 -740H544V-672H337V-516H544V-448H337V-68H521V0H83Z"/><path id="mf" d="M332 -630Q297 -630 283 -644Q269 -659 269 -681V-697Q269 -719 283 -734Q297 -748 332 -748Q367 -748 381 -734Q395 -719 395 -697V-681Q395 -659 381 -644Q367 -630 332 -630ZM106 -68H292V-448H106V-516H372V-68H546V0H106Z"/><path id="s10" d="M321 16Q266 16 216 -6Q165 -28 126 -72Q87 -116 65 -181Q42 -246 42 -333Q42 -417 65 -482Q87 -546 126 -590Q165 -634 216 -657Q266 -680 321 -680Q377 -680 427 -658Q477 -636 516 -591Q555 -547 578 -482Q601 -417 601 -330Q601 -246 578 -181Q555 -116 516 -73Q477 -29 427 -7Q376 16 321 16ZM321 -8Q365 -8 396 -31Q428 -55 448 -98Q468 -142 478 -201Q488 -260 488 -330Q488 -401 478 -460Q468 -519 448 -563Q428 -607 396 -632Q365 -656 321 -656Q278 -656 246 -632Q215 -608 195 -565Q174 -521 165 -462Q155 -403 155 -333Q155 -263 165 -203Q174 -144 195 -100Q215 -56 246 -32Q278 -8 321 -8Z"/><path id="s1d" d="M32 0V-19L94 -28Q95 -56 95 -88Q96 -120 96 -151Q97 -183 97 -208V-664L28 -680V-696L187 -738L198 -728L194 -528V-375L194 -373V-77V-75V11ZM322 13Q294 13 269 3Q243 -6 221 -28Q199 -50 181 -85H167L176 -106Q207 -69 232 -54Q257 -39 292 -39Q324 -39 350 -60Q375 -81 390 -124Q406 -167 406 -233Q406 -331 373 -374Q340 -417 290 -417Q267 -417 248 -407Q228 -397 211 -380Q194 -362 178 -339L172 -364H184Q199 -395 220 -418Q242 -441 270 -455Q298 -468 332 -468Q382 -468 422 -442Q462 -416 485 -365Q509 -315 509 -239Q509 -160 484 -103Q460 -47 418 -17Q376 13 322 13Z"/><path id="s1ea" d="M96 -732Q119 -732 131 -717Q144 -703 144 -676Q144 -661 141 -638Q138 -614 134 -588Q130 -561 126 -539Q123 -517 121 -506L106 -423H86L71 -506Q69 -517 65 -539Q61 -561 57 -588Q53 -614 50 -638Q47 -661 47 -676Q47 -703 60 -717Q73 -732 96 -732Z"/><path id="s20" d="M249 13Q190 13 142 -14Q94 -42 66 -94Q38 -145 38 -219Q38 -297 67 -353Q97 -408 144 -438Q192 -468 247 -468Q298 -468 337 -446Q377 -424 399 -386Q421 -347 421 -295Q421 -279 419 -268Q418 -257 415 -247H77V-270H272Q307 -270 320 -283Q333 -296 333 -329Q333 -367 322 -392Q312 -418 293 -431Q274 -444 248 -444Q221 -444 196 -424Q171 -404 156 -359Q140 -315 140 -239Q140 -179 159 -136Q178 -93 211 -70Q244 -47 286 -47Q327 -47 356 -64Q386 -81 409 -108L423 -98Q405 -59 378 -35Q352 -10 319 1Q286 13 249 13Z"/><path id="s22" d="M212 253Q143 253 101 238Q58 223 40 198Q21 172 21 138Q21 109 38 88Q55 66 85 49Q115 33 152 19L156 24Q141 36 126 50Q112 63 103 81Q95 99 95 127Q95 159 109 183Q124 206 153 218Q181 231 220 231Q273 231 309 214Q345 197 363 170Q381 142 381 110Q381 73 357 54Q333 35 283 35H177Q169 35 157 35Q146 34 135 32L134 30Q95 26 69 4Q42 -19 42 -59Q42 -96 66 -125Q89 -154 128 -183V-191L142 -173Q124 -158 115 -140Q106 -123 106 -104Q106 -80 124 -68Q142 -56 178 -56H303Q355 -56 390 -42Q425 -27 443 1Q461 28 461 71Q461 105 445 138Q430 170 399 197Q368 223 322 238Q275 253 212 253ZM223 -147Q173 -147 134 -166Q94 -185 71 -221Q49 -257 49 -308Q49 -358 72 -394Q96 -430 136 -449Q175 -468 223 -468Q255 -468 281 -461Q308 -454 329 -441Q351 -428 365 -408L369 -404Q384 -385 391 -361Q398 -337 398 -308Q398 -258 375 -221Q352 -185 312 -166Q272 -147 223 -147ZM223 -169Q248 -169 266 -184Q285 -199 295 -230Q305 -261 305 -309Q305 -357 295 -387Q285 -417 266 -432Q248 -446 223 -446Q199 -446 181 -431Q163 -416 153 -385Q142 -354 142 -307Q142 -259 153 -229Q163 -198 181 -184Q199 -169 223 -169ZM351 -389 347 -408H351L461 -468L471 -460V-389Z"/><path id="s23" d="M30 0V-19L121 -32H165L254 -19V0ZM91 0Q93 -24 94 -61Q94 -99 95 -138Q95 -178 95 -211V-664L26 -680V-696L187 -738L197 -728L193 -528V-366V-364V-211Q193 -178 194 -138Q194 -99 195 -61Q196 -24 198 0ZM315 0V-19L405 -32H449L538 -19V0ZM374 0Q376 -24 377 -61Q378 -99 378 -138Q379 -178 379 -211V-310Q379 -366 362 -386Q345 -406 308 -406Q287 -406 265 -398Q243 -390 221 -375Q200 -359 178 -337L173 -357H179Q201 -389 229 -414Q256 -439 289 -453Q321 -468 357 -468Q414 -468 445 -432Q477 -396 477 -312V-211Q477 -178 478 -138Q478 -99 479 -61Q480 -24 482 0Z"/><path id="s24" d="M30 0V-19L121 -32H165L254 -19V0ZM91 0Q93 -24 94 -61Q94 -99 95 -138Q95 -178 95 -211V-249Q95 -294 95 -324Q95 -355 93 -387L26 -404V-420L187 -468L197 -459L193 -330V-211Q193 -178 194 -138Q194 -99 195 -61Q196 -24 198 0ZM143 -559Q118 -559 100 -575Q82 -592 82 -619Q82 -646 100 -663Q118 -679 143 -679Q169 -679 186 -663Q204 -646 204 -620Q204 -592 186 -575Q169 -559 143 -559Z"/><path id="s27" d="M30 0V-19L121 -32H165L254 -19V0ZM91 0Q93 -24 94 -61Q94 -99 95 -138Q95 -178 95 -211V-664L26 -680V-696L187 -738L197 -728L193 -544V-211Q193 -178 194 -138Q194 -99 195 -61Q196 -24 198 0Z"/><path id="s29" d="M30 0V-19L121 -32H165L254 -19V0ZM91 0Q93 -24 94 -61Q94 -99 95 -138Q95 -178 95 -211V-249Q95 -279 95 -302Q95 -325 94 -346Q94 -366 93 -387L26 -404V-420L183 -468L193 -459V-362V-360V-211Q193 -178 194 -138Q194 -99 195 -61Q196 -24 198 0ZM315 0V-19L405 -32H449L538 -19V0ZM374 0Q376 -24 377 -61Q378 -99 378 -138Q379 -178 379 -211V-310Q379 -366 362 -386Q345 -406 308 -406Q287 -406 265 -398Q243 -390 221 -375Q200 -359 178 -337L173 -357H179Q201 -389 229 -414Q256 -439 289 -453Q321 -468 357 -468Q414 -468 445 -432Q477 -396 477 -312V-211Q477 -178 478 -138Q478 -99 479 -61Q480 -24 482 0Z"/><path id="s2d" d="M30 0V-19L121 -32H165L266 -19V0ZM91 0Q93 -24 94 -61Q94 -99 95 -138Q95 -178 95 -211V-249Q95 -279 95 -302Q95 -325 94 -346Q94 -366 93 -387L26 -404V-420L183 -468L193 -459V-317V-314V-211Q193 -178 194 -138Q194 -99 195 -61Q196 -24 198 0ZM187 -263 174 -315H188Q205 -367 226 -400Q248 -434 275 -451Q302 -468 332 -468Q358 -468 376 -455Q395 -443 401 -415Q399 -386 381 -371Q363 -356 340 -356Q321 -356 305 -365Q289 -374 275 -395L255 -422L288 -423Q260 -408 230 -366Q201 -323 187 -263Z"/><path id="s2e" d="M186 13Q144 13 111 4Q78 -6 44 -25L50 -149H66L113 -16H79V-35Q104 -22 127 -15Q151 -8 186 -8Q217 -8 238 -19Q259 -30 270 -49Q281 -67 281 -91Q281 -130 253 -149Q226 -168 189 -184L161 -196Q133 -208 107 -224Q80 -240 64 -266Q47 -291 47 -330Q47 -370 65 -401Q83 -432 119 -450Q154 -468 208 -468Q246 -468 276 -459Q306 -450 335 -433L331 -317H314L269 -441H306V-413Q284 -431 261 -438Q238 -446 208 -446Q166 -446 143 -425Q120 -405 120 -371Q120 -333 147 -313Q174 -294 211 -278L239 -266Q268 -253 296 -237Q323 -222 340 -196Q358 -171 358 -130Q358 -87 338 -54Q318 -22 280 -5Q242 13 186 13Z"/><path id="s2f" d="M131 -428V-455H292V-428ZM193 13Q139 13 108 -15Q77 -43 77 -99Q77 -129 77 -153Q77 -177 77 -213L79 -428H11V-447L111 -465L77 -443L147 -607H180L176 -443V-436V-103Q176 -66 192 -51Q207 -35 231 -35Q251 -35 266 -43Q282 -51 295 -66L308 -56Q297 -34 282 -19Q266 -3 245 5Q223 13 193 13Z"/><path id="s30" d="M205 13Q147 13 114 -22Q81 -57 81 -138L83 -426L108 -397L21 -415V-432L173 -468L184 -459L180 -330V-141Q180 -86 197 -66Q215 -47 252 -47Q272 -47 293 -55Q314 -63 335 -79Q357 -95 378 -118L383 -90H375Q356 -62 330 -39Q304 -15 272 -1Q241 13 205 13ZM366 11V-86V-89V-402L301 -415V-432L457 -468L468 -459L464 -330V-28L523 -19V0Z"/><path id="s31" d="M223 3 41 -455H150L286 -90H268L272 -103L400 -455H430L260 3ZM5 -436V-455H236V-437L142 -423H86ZM323 -437V-455H471V-436L411 -427H401Z"/><path id="sa" d="M34 0V-19L138 -32H187L291 -19V0ZM107 0Q109 -40 110 -93Q111 -146 111 -204Q111 -261 111 -313V-357Q111 -409 111 -465Q111 -521 110 -572Q109 -624 107 -664H219Q217 -624 216 -572Q215 -520 215 -464Q214 -409 214 -357V-313Q214 -261 215 -204Q215 -146 216 -93Q217 -40 219 0ZM34 -645V-664H291V-645L187 -632H138Z"/><linearGradient id="s04g" x1="0" x2="1"><stop offset="0" stop-color="#f2464a" stop-opacity="0"/><stop offset="0.5" stop-color="#f2464a" stop-opacity="1"/><stop offset="1" stop-color="#f2464a" stop-opacity="0"/></linearGradient></defs><g transform="translate(2 28) scale(0.013)" fill="#f2464a"><use href="#b3b" x="0"/><use href="#b41" x="760"/></g><rect x="29.7" y="22" width="36" height="1.5" fill="#f2464a" opacity="0.6"/><g transform="translate(0 78) scale(0.046)" fill="#ece8e1"><use href="#s10" x="0"/><use href="#s2f" x="643"/><use href="#s23" x="959"/><use href="#s20" x="1522"/><use href="#s2d" x="1985"/><use href="#s2f" x="2593"/><use href="#s23" x="2909"/><use href="#s24" x="3472"/><use href="#s29" x="3751"/><use href="#s22" x="4314"/><use href="#s2e" x="4804"/><use href="#sa" x="5400"/><use href="#s1ea" x="5726"/><use href="#s31" x="5917"/><use href="#s20" x="6364"/><use href="#s1d" x="7027"/><use href="#s30" x="7572"/><use href="#s24" x="8121"/><use href="#s27" x="8400"/><use href="#s2f" x="8679"/></g><g transform="translate(917.2 76) scale(0.013)" fill="#8d8980"><use href="#m19" x="0"/><use href="#mf" x="600"/><use href="#m8" x="1200"/><use href="#m9" x="1800"/><use href="#m16" x="3000"/><use href="#m18" x="3600"/><use href="#m15" x="4200"/><use href="#m10" x="4800"/><use href="#m9" x="5400"/><use href="#m7" x="6000"/><use href="#m1a" x="6600"/><use href="#m19" x="7200"/><use href="#m51" x="7800"/><use href="#ma" x="9000"/><use href="#m4" x="9600"/><use href="#m14" x="10200"/><use href="#m1d" x="11400"/><use href="#m15" x="12000"/><use href="#m18" x="12600"/><use href="#m11" x="13200"/><use href="#m51" x="13800"/><use href="#m9" x="15000"/><use href="#m1e" x="15600"/><use href="#m16" x="16200"/><use href="#m9" x="16800"/><use href="#m18" x="17400"/><use href="#mf" x="18000"/><use href="#m13" x="18600"/><use href="#m9" x="19200"/><use href="#m14" x="19800"/><use href="#m1a" x="20400"/><use href="#m19" x="21000"/></g><rect x="0" y="94" width="1200" height="1" fill="#8d8980" opacity="0.28"/><rect x="0" y="93" width="64" height="3" fill="#f2464a"/><rect x="-160" y="93" width="160" height="3" fill="url(#s04g)"><animate attributeName="x" values="-160;-160;1200" keyTimes="0;0.67;1" dur="11.1s" repeatCount="indefinite"/></rect></svg>
